<?xml version="1.0" encoding="UTF-8" standalone="no"?>
<svg
   width="2134"
   height="2134"
   xml:space="preserve"
   overflow="hidden"
   shape-rendering="geometricPrecision"
   version="1.1"
   id="svg26"
   xmlns="http://www.w3.org/2000/svg"
   xmlns:svg="http://www.w3.org/2000/svg">
    <defs
   id="defs11" />
    <path
   id="path24"
   d="m 1219.0137,213.36523 c -19.3314,0.73371 -38.5329,7.93871 -54.1035,21.81446 L 820.3906,542.19727 c -35.59,31.716 -38.7315,86.27814 -7.0215,121.86914 31.72,35.59 86.2811,38.73162 121.8711,7.01562 l 344.5196,-307.01758 c 35.59,-31.716 38.7295,-86.28009 7.0195,-121.87109 -17.8425,-20.01938 -42.911,-29.77146 -67.7656,-28.82813 z m 27.6269,205.29297 -254.2402,226.18946 87.8867,98.78711 -720.3164,560.33593 195.8301,221.709 645.4551,-646.0703 85.8339,96.4804 254.25,-226.1855 z m 24.5801,162.5293 v 0 0 c 12.3454,0.16655 24.1396,4.98742 32.3926,14.85547 l -15.8223,13.23242 c -8.1123,-9.69983 -25.4152,-10.5954 -39.041,0.80469 v 0.002 c -12.5238,10.47196 -28.5098,14.69184 -42.8906,12.27735 -0.1644,14.58173 -7.1437,29.56943 -19.668,40.04296 v 0.002 c -13.6274,11.40388 -15.8076,28.58726 -7.6953,38.28711 l -15.8184,13.23242 c -16.5073,-19.73763 -10.6274,-49.84372 10.2832,-67.33985 v -0.002 c 13.6368,-11.40259 15.8099,-28.58072 7.6954,-38.2832 l 15.8203,-13.23242 c 8.1135,9.70125 25.4042,10.59604 39.0429,-0.80664 10.456,-8.74805 23.3517,-13.23686 35.6973,-13.07227 z m 106.4785,97.62305 c 16.9764,19.33109 11.8351,49.57044 -8.6523,67.56836 -13.3511,11.72875 -15.1028,28.96114 -6.7578,38.46289 l -15.4981,13.60937 c -8.3409,-9.49716 -25.6642,-9.97321 -39.0156,1.75586 -20.4869,17.99745 -51.136,19.20123 -68.1133,-0.13086 l 15.4961,-13.60937 c 8.3427,9.49991 25.6527,9.97469 39.0059,-1.75586 12.2652,-10.77483 28.1465,-15.38198 42.5839,-13.31641 -0.1903,-14.5813 6.4203,-29.73488 18.6856,-40.50976 13.3526,-11.73009 15.1112,-28.96394 6.7676,-38.46485 z m 280.5449,19.56445 c -19.691,0.7475 -39.2495,8.08639 -55.1132,22.2207 l -342.1211,304.875 c -36.25,32.31 -39.4507,87.8887 -7.1407,124.1387 32.3,36.26 87.8807,39.4604 124.1407,7.1504 l 342.1211,-304.8789 c 36.25,-32.30608 39.4486,-87.88571 7.1386,-124.13871 v -0.002 c -18.1743,-20.39231 -43.7083,-30.32631 -69.0254,-29.36523 z M 743,1672 c -27.61,0 -50,22.39 -50,50 v 49.8555 c -29.4736,8.6373 -51,35.8791 -51,68.1445 v 71 h 850 v -71 c 0,-32.0885 -21.2908,-59.2076 -50.5156,-68 H 1443 v -50 c 0,-27.61 -22.39,-50 -50,-50 z" /></svg>
