<?xml version="1.0" encoding="UTF-8" standalone="no"?>
<svg
   width="2134"
   height="2134"
   xml:space="preserve"
   overflow="hidden"
   shape-rendering="geometricPrecision"
   version="1.1"
   id="svg26"
   sodipodi:docname="icon_student.svg"
   xmlns:inkscape="http://www.inkscape.org/namespaces/inkscape"
   xmlns:sodipodi="http://sodipodi.sourceforge.net/DTD/sodipodi-0.dtd"
   xmlns="http://www.w3.org/2000/svg"
   xmlns:svg="http://www.w3.org/2000/svg"><sodipodi:namedview
   id="namedview26"
   pagecolor="#505050"
   bordercolor="#ffffff"
   borderopacity="1"
   inkscape:showpageshadow="0"
   inkscape:pageopacity="0"
   inkscape:pagecheckerboard="1"
   inkscape:deskcolor="#505050"><inkscape:page
     x="0"
     y="0"
     width="2134"
     height="2134"
     id="page2"
     margin="0"
     bleed="0" /></sodipodi:namedview>
    <defs
   id="defs11" />
    <path
   id="path19"
   d="m 1304.9122,116.61878 c -28.001,1.06276 -55.8139,11.49901 -78.3675,31.59767 L 727.51712,592.92331 c -51.55117,45.93978 -56.10155,124.9716 -10.17046,176.52423 45.94559,51.55117 124.9759,56.10172 176.52707,10.16194 L 1392.9013,334.90262 c 51.5512,-45.93979 56.0987,-124.97443 10.1676,-176.52705 -25.8444,-28.99755 -62.1555,-43.12318 -98.1567,-41.75679 z M 1344.929,413.98023 976.66883,741.60968 1103.9704,884.7002 60.611059,1696.3321 l 283.654731,321.1396 934.92471,-935.8158 124.3281,139.7493 368.2745,-327.62375 z m 35.6037,235.41939 v 0 0 c 17.882,0.24125 34.9655,7.22415 46.9198,21.51776 l -22.9182,19.16681 c -11.7504,-14.04995 -36.8132,-15.34716 -56.5498,1.16557 v 0.003 c -18.1404,15.16836 -41.2957,21.28074 -62.1259,17.78342 -0.2382,21.12123 -10.3475,42.83054 -28.4886,58.00117 v 0.003 c -19.739,16.51822 -22.8969,41.4079 -11.1465,55.45787 l -22.9125,19.16681 c -23.9104,-28.58943 -15.3935,-72.19731 14.8949,-97.53999 v -0.003 c 19.7526,-16.51635 22.9003,-41.39842 11.1466,-55.4522 l 22.9153,-19.16681 c 11.7522,14.052 36.7973,15.34808 56.5526,-1.1684 15.1453,-12.67132 33.8243,-19.17324 51.7066,-18.93484 z m 154.2313,141.40441 c 24.5898,28.00058 17.1428,71.80148 -12.5327,97.87099 -19.3387,16.98878 -21.876,41.94944 -9.7885,55.71248 l -22.4485,19.71281 c -12.0816,-13.75638 -37.174,-14.44593 -56.5131,2.54332 -29.6747,26.06879 -74.0692,27.81246 -98.6603,-0.18955 l 22.4457,-19.71281 c 12.0841,13.76037 37.1572,14.44807 56.499,-2.54332 17.7658,-15.60706 40.7694,-22.28039 61.6816,-19.28847 -0.2756,-21.12062 9.2997,-43.07019 27.0656,-58.67731 19.3409,-16.99073 21.8882,-41.95351 9.8027,-55.71532 z m 406.3618,28.33859 c -28.5219,1.08274 -56.8518,11.71292 -79.83,32.1861 l -495.5533,441.60348 c -52.5072,46.8002 -57.1433,127.3044 -10.3432,179.8116 46.7857,52.5217 127.2929,57.1574 179.8146,10.3572 l 495.5533,-441.6091 c 52.5072,-46.7945 57.1403,-127.30017 10.3401,-179.81168 v -0.003 c -26.325,-29.53772 -63.3103,-43.92685 -99.9815,-42.53476 z"
   style="fill:#3f51b5;fill-opacity:1;stroke-width:1.44847" /></svg>
